<svg width="16" height="17" viewBox="0 0 16 17" fill="none" xmlns="http://www.w3.org/2000/svg">
<g clip-path="url(#clip0_243_4)">
<path d="M12.5646 1.87891H9.21131C8.98897 1.87891 8.77574 1.96723 8.61852 2.12445C8.46131 2.28166 8.37298 2.4949 8.37298 2.71723C8.37298 2.93957 8.46131 3.15281 8.61852 3.31002C8.77574 3.46724 8.98897 3.55556 9.21131 3.55556H10.5409L7.53465 6.56181L4.77404 3.80119C4.61683 3.64403 4.40364 3.55574 4.18134 3.55574C3.95905 3.55574 3.74585 3.64403 3.58864 3.80119L0.235329 7.15451C0.0826204 7.31262 -0.00187837 7.52438 3.1691e-05 7.74419C0.00194175 7.964 0.0901081 8.17426 0.245541 8.32969C0.400974 8.48512 0.611237 8.57329 0.831044 8.5752C1.05085 8.57711 1.26261 8.49261 1.42073 8.3399L4.18134 5.57929L6.94196 8.3399C7.09917 8.49707 7.31236 8.58535 7.53465 8.58535C7.75695 8.58535 7.97014 8.49707 8.12735 8.3399L11.7263 4.74096V6.07055C11.7263 6.29289 11.8146 6.50612 11.9718 6.66334C12.1291 6.82055 12.3423 6.90888 12.5646 6.90888C12.787 6.90888 13.0002 6.82055 13.1574 6.66334C13.3146 6.50612 13.403 6.29289 13.403 6.07055V2.71723C13.403 2.60713 13.3814 2.49809 13.3393 2.39636C13.2971 2.29462 13.2354 2.20218 13.1575 2.12432C13.0797 2.04647 12.9872 1.98472 12.8855 1.94261C12.7838 1.9005 12.6747 1.87885 12.5646 1.87891Z" fill="#FFC149"/>
<path d="M7.74312 12.099C7.74312 12.656 7.64333 13.1758 7.44376 13.6585C7.24418 14.1365 6.97267 14.5519 6.62921 14.9047C6.28575 15.2528 5.88196 15.5289 5.41783 15.7331C4.95834 15.9327 4.46404 16.0325 3.93493 16.0325C3.41047 16.0325 2.91617 15.9327 2.45204 15.7331C1.99255 15.5289 1.58875 15.2528 1.24066 14.9047C0.8972 14.5519 0.625683 14.1365 0.426107 13.6585C0.226531 13.1758 0.126743 12.656 0.126743 12.099C0.126743 11.5328 0.226531 11.0083 0.426107 10.5256C0.625683 10.0429 0.8972 9.6275 1.24066 9.2794C1.58875 8.92667 1.99255 8.65051 2.45204 8.45093C2.91617 8.25136 3.41047 8.15157 3.93493 8.15157C4.46404 8.15157 4.95834 8.24671 5.41783 8.43701C5.88196 8.62266 6.28575 8.88953 6.62921 9.23763C6.97267 9.58109 7.24418 9.99649 7.44376 10.4838C7.64333 10.9665 7.74312 11.5049 7.74312 12.099ZM5.82858 12.099C5.82858 11.7927 5.77753 11.5165 5.67542 11.2705C5.57795 11.0199 5.44336 10.8064 5.27163 10.63C5.0999 10.449 4.898 10.3121 4.66594 10.2193C4.43851 10.1218 4.19485 10.0731 3.93493 10.0731C3.67502 10.0731 3.42903 10.1218 3.19697 10.2193C2.96954 10.3121 2.76997 10.449 2.59824 10.63C2.43115 10.8064 2.29887 11.0199 2.20141 11.2705C2.10394 11.5165 2.0552 11.7927 2.0552 12.099C2.0552 12.3868 2.10394 12.6536 2.20141 12.8996C2.29887 13.1456 2.43115 13.3591 2.59824 13.5401C2.76997 13.7211 2.96954 13.865 3.19697 13.9718C3.42903 14.0739 3.67502 14.1249 3.93493 14.1249C4.19485 14.1249 4.43851 14.0762 4.66594 13.9787C4.898 13.8813 5.0999 13.7443 5.27163 13.568C5.44336 13.3916 5.57795 13.1781 5.67542 12.9275C5.77753 12.6768 5.82858 12.4007 5.82858 12.099Z" fill="#FFC149"/>
<path d="M16 12.099C16 12.656 15.9002 13.1758 15.7006 13.6585C15.5011 14.1365 15.2295 14.5519 14.8861 14.9047C14.5426 15.2528 14.1388 15.5289 13.6747 15.7331C13.2152 15.9327 12.7209 16.0325 12.1918 16.0325C11.6673 16.0325 11.173 15.9327 10.7089 15.7331C10.2494 15.5289 9.84563 15.2528 9.49753 14.9047C9.15408 14.5519 8.88256 14.1365 8.68299 13.6585C8.48341 13.1758 8.38362 12.656 8.38362 12.099C8.38362 11.5328 8.48341 11.0083 8.68299 10.5256C8.88256 10.0429 9.15408 9.6275 9.49753 9.2794C9.84563 8.92667 10.2494 8.65051 10.7089 8.45093C11.173 8.25136 11.6673 8.15157 12.1918 8.15157C12.7209 8.15157 13.2152 8.24671 13.6747 8.43701C14.1388 8.62266 14.5426 8.88953 14.8861 9.23763C15.2295 9.58109 15.5011 9.99649 15.7006 10.4838C15.9002 10.9665 16 11.5049 16 12.099ZM14.0855 12.099C14.0855 11.7927 14.0344 11.5165 13.9323 11.2705C13.8348 11.0199 13.7002 10.8064 13.5285 10.63C13.3568 10.449 13.1549 10.3121 12.9228 10.2193C12.6954 10.1218 12.4517 10.0731 12.1918 10.0731C11.9319 10.0731 11.6859 10.1218 11.4538 10.2193C11.2264 10.3121 11.0268 10.449 10.8551 10.63C10.688 10.8064 10.5558 11.0199 10.4583 11.2705C10.3608 11.5165 10.3121 11.7927 10.3121 12.099C10.3121 12.3868 10.3608 12.6536 10.4583 12.8996C10.5558 13.1456 10.688 13.3591 10.8551 13.5401C11.0268 13.7211 11.2264 13.865 11.4538 13.9718C11.6859 14.0739 11.9319 14.1249 12.1918 14.1249C12.4517 14.1249 12.6954 14.0762 12.9228 13.9787C13.1549 13.8813 13.3568 13.7443 13.5285 13.568C13.7002 13.3916 13.8348 13.1781 13.9323 12.9275C14.0344 12.6768 14.0855 12.4007 14.0855 12.099Z" fill="#FFC149"/>
</g>
<defs>
<clipPath id="clip0_243_4">
<rect width="16" height="16" fill="white" transform="translate(0 0.955811)"/>
</clipPath>
</defs>
</svg>
